<svg width="160" height="160" viewBox="0 0 160 160" fill="none" xmlns="http://www.w3.org/2000/svg">
<g id="Chats-teardrop" opacity="0.2">
<path id="Vector" d="M71.4634 101.6H33.4553C32.5389 101.6 31.66 101.242 31.012 100.605C30.364 99.967 30 99.1022 30 98.2004V60.8002C30 49.9793 34.3685 39.6016 42.1443 31.9501C49.9202 24.2986 60.4666 20 71.4634 20C82.4602 20 93.0065 24.2986 100.782 31.9501C108.558 39.6016 112.927 49.9793 112.927 60.8002C112.927 71.6211 108.558 81.9988 100.782 89.6503C93.0065 97.3019 82.4602 101.6 71.4634 101.6Z" stroke="white" stroke-width="1.5" stroke-linecap="round" stroke-linejoin="round"/>
<path id="Vector_2" d="M51.9513 101.6C51.9513 111.785 56.0628 121.552 63.3812 128.753C70.6997 135.955 80.6257 140 90.9756 140H126.748C127.61 140 128.438 139.663 129.048 139.063C129.657 138.463 130 137.649 130 136.8V101.6C130 91.4158 125.889 81.6486 118.57 74.4471C116.565 72.474 114.364 70.7378 112.012 69.2568" stroke="white" stroke-width="1.5" stroke-linecap="round" stroke-linejoin="round"/>
</g>
</svg>
