<svg width="24" height="24" viewBox="0 0 24 24" fill="none" xmlns="http://www.w3.org/2000/svg">
<g id="pariscope-fill">
<path id="Shape" d="M12.0063 2C9.67472 1.99852 7.41587 2.81185 5.62036 4.29934C3.82486 5.78684 2.60558 7.85498 2.17335 10.1462C1.74111 12.4374 2.1231 14.8077 3.25326 16.8471C4.38341 18.8865 6.19069 20.4669 8.3626 21.315C8.2751 20.5237 8.1951 19.3075 8.39635 18.4437C8.57885 17.6625 9.56885 13.4725 9.56885 13.4725C9.56885 13.4725 9.2701 12.8737 9.2701 11.9887C9.2701 10.5975 10.0763 9.55999 11.0801 9.55999C11.9326 9.55999 12.3451 10.2 12.3451 10.9687C12.3451 11.8262 11.7988 13.1087 11.5163 14.2975C11.2813 15.2925 12.0163 16.105 12.9976 16.105C14.7751 16.105 16.1413 14.23 16.1413 11.525C16.1413 9.13124 14.4201 7.45749 11.9638 7.45749C9.11885 7.45749 7.44885 9.59124 7.44885 11.7962C7.44885 12.6562 7.7801 13.5775 8.1926 14.0787C8.22813 14.1165 8.25324 14.1629 8.26552 14.2132C8.27778 14.2637 8.27678 14.3163 8.2626 14.3662C8.18635 14.6812 8.0176 15.3612 7.9851 15.5C7.94135 15.6825 7.8401 15.7212 7.6501 15.6337C6.4001 15.0525 5.6201 13.2262 5.6201 11.7587C5.6201 8.60499 7.9126 5.70875 12.2276 5.70875C15.6963 5.70875 18.3926 8.17999 18.3926 11.4837C18.3926 14.93 16.2188 17.7037 13.2038 17.7037C12.1901 17.7037 11.2376 17.1775 10.9113 16.555L10.2888 18.9325C10.0626 19.8012 9.4526 20.89 9.0451 21.5537C10.4201 21.9789 11.8706 22.1022 13.2976 21.9153C14.7246 21.7284 16.0945 21.2357 17.3136 20.4709C18.5327 19.706 19.5723 18.687 20.3616 17.4835C21.1507 16.28 21.6708 14.9203 21.8863 13.4973C22.1018 12.0744 22.0076 10.6217 21.6101 9.23843C21.2127 7.85521 20.5214 6.57408 19.5834 5.48255C18.6455 4.39101 17.4829 3.5148 16.1752 2.91377C14.8676 2.31274 13.4456 2.00105 12.0063 2Z" fill="white"/>
</g>
</svg>
