<svg width="16" height="16" viewBox="0 0 16 16" fill="none" xmlns="http://www.w3.org/2000/svg">
<g id="_Search - 16px icon">
<path id="Icon" fill-rule="evenodd" clip-rule="evenodd" d="M0 6C0 9.31371 2.68629 12 6 12C7.47685 12 8.82908 11.4664 9.87442 10.5815L14.6464 15.3536C14.8417 15.5488 15.1583 15.5488 15.3536 15.3536C15.5488 15.1583 15.5488 14.8417 15.3536 14.6464L10.5815 9.87442C11.4664 8.82908 12 7.47685 12 6C12 2.68629 9.31371 0 6 0C2.68629 0 0 2.68629 0 6ZM6 11C8.76142 11 11 8.76142 11 6C11 3.23858 8.76142 1 6 1C3.23858 1 1 3.23858 1 6C1 8.76142 3.23858 11 6 11Z" fill="#767676"/>
</g>
</svg>
