<svg width="127" height="32" viewBox="0 0 127 32" fill="none" xmlns="http://www.w3.org/2000/svg">
<g id="Shark Logo">
<g id="Shape">
<path d="M16.4559 0C23.1368 0 29.1591 2.44441 28.9795 9.97658L20.0597 9.94153C20.1165 9.46324 20.0448 8.9787 19.8517 8.53572C19.6586 8.09273 19.3506 7.70654 18.9582 7.41517C18.1171 6.90477 17.1322 6.66737 16.1446 6.73686C14.5282 6.73686 12.421 7.20469 12.421 9.21638C12.421 10.8846 14.808 11.4166 17.2934 11.9706C18.2931 12.1935 19.3088 12.4199 20.1914 12.7252C25.6391 14.6082 27.4949 17.5204 27.4949 21.1696C27.4949 28.4912 20.1555 32 13.3429 32C6.13524 32 -0.37801 28.7837 0.017096 20.9942H9.35595C9.29138 21.6284 9.36465 22.2688 9.57098 22.8734C9.77731 23.4781 10.112 24.0334 10.5532 24.503C11.6227 25.1588 12.8937 25.4278 14.1451 25.2631C15.965 25.2631 18.3596 24.3274 18.3596 22.3158C18.3596 20.5695 16.3988 20.0096 13.4667 19.1724C12.6479 18.9386 11.7534 18.6832 10.8047 18.3742C6.97334 17.1345 3.2857 15.1579 3.2857 10.0585C3.2857 3.16956 10.1342 0 16.4559 0Z" fill="white"/>
<path d="M26.5682 31.2H35.092L37.5894 19.4934C38.1053 17.1684 39.008 15.2735 41.7165 15.2735C42.0203 15.2333 42.3294 15.2586 42.6225 15.3475C42.9157 15.4365 43.1861 15.5871 43.4153 15.7889C43.6445 15.9908 43.8271 16.2393 43.9507 16.5174C44.0744 16.7956 44.1361 17.0969 44.1317 17.4008C43.9917 18.6366 43.7605 19.8606 43.44 21.0628L41.2475 31.2H49.8182L52.5266 18.7261C52.8536 17.3398 53.0576 15.9277 53.1363 14.5062C53.1363 10.1699 49.7713 8.55403 45.8553 8.55403C44.5646 8.56975 43.2951 8.8812 42.1459 9.46402C40.9967 10.0468 39.999 10.8853 39.2308 11.9137H39.137L41.482 0.8H32.8995L26.5682 31.2Z" fill="white"/>
<path d="M105.308 31.2H96.6115L103.107 0.8H111.803L108.693 15.5757H108.777L115.188 9.10042H125.595L115.368 18.0054L121.157 31.2H111.719L108.645 23.2018L106.671 24.8991L105.308 31.2Z" fill="white"/>
<path fill-rule="evenodd" clip-rule="evenodd" d="M125.764 28.3242C125.514 28.1352 125.214 28.0231 124.9 28.0017C124.682 27.9919 124.464 28.0253 124.259 28.1001C124.054 28.175 123.865 28.2897 123.705 28.4376C123.545 28.5855 123.416 28.7636 123.326 28.9615C123.236 29.1595 123.186 29.3733 123.18 29.5905C123.178 29.9029 123.268 30.2088 123.439 30.4708C123.61 30.7327 123.855 30.9393 124.142 31.0649C124.43 31.1905 124.748 31.2296 125.058 31.1776C125.368 31.1257 125.655 30.9847 125.885 30.7722C126.116 30.5597 126.278 30.2848 126.353 29.9816C126.428 29.6783 126.413 29.3598 126.308 29.0653C126.203 28.7708 126.014 28.5132 125.764 28.3242ZM124.925 29.505H124.593V29.0039H124.925C124.946 29.0039 124.968 29.0035 124.989 29.003C125.164 28.9995 125.331 28.9962 125.331 29.2361C125.331 29.505 125.146 29.505 124.925 29.505ZM124.962 28.7594H124.237V30.4827H124.593V29.7372H124.851L125.343 30.4827H125.694C125.653 30.5235 125.609 30.5616 125.562 30.5965C125.37 30.7392 125.14 30.8229 124.9 30.8372C124.733 30.8472 124.565 30.8229 124.407 30.766C124.25 30.7091 124.105 30.6207 123.983 30.5062C123.861 30.3917 123.764 30.2535 123.698 30.1002C123.631 29.947 123.597 29.7819 123.598 29.615C123.598 29.3765 123.669 29.1433 123.801 28.9442C123.933 28.7451 124.121 28.5887 124.341 28.4945C124.561 28.4002 124.804 28.3721 125.041 28.4136C125.277 28.4551 125.496 28.5644 125.67 28.7281C125.845 28.8918 125.967 29.1027 126.023 29.3347C126.078 29.5668 126.064 29.8099 125.982 30.0341C125.923 30.1957 125.831 30.3424 125.712 30.4652L125.208 29.7372C125.478 29.7005 125.687 29.6149 125.687 29.2605C125.687 28.9061 125.441 28.7594 124.962 28.7594Z" fill="white"/>
<path d="M78.0943 31.2H86.9264L88.9459 21.7023C89.9678 16.9534 91.8413 15.3981 95.6004 15.3981C96.7571 15.3944 97.9057 15.5873 98.9946 15.9681L100.637 8.35795C99.6217 8.07398 98.565 7.95764 97.5104 8.01369C96.1417 8.14598 94.8224 8.58294 93.654 9.29098C92.4856 9.99901 91.4992 10.9592 90.7707 12.0977H90.6856L91.4398 8.53607H82.924L78.0943 31.2Z" fill="white"/>
<path fill-rule="evenodd" clip-rule="evenodd" d="M67.8204 13.7304C66.0598 13.7304 64.8261 14.3249 64.347 15.9917L56.1665 16.0499C57.532 10.1638 62.227 8.8 67.8204 8.8C71.9526 8.8 78.8994 9.25457 78.8994 14.6279C78.8994 16.7307 77.874 21.2248 77.0691 24.7531C76.5489 27.0329 76.1206 28.91 76.1206 29.4773C76.1008 30.1509 76.2231 30.8213 76.48 31.4471H67.9522C67.713 30.7611 67.6074 30.0378 67.6408 29.3142H67.5569C66.6313 30.2026 65.5296 30.8984 64.3189 31.3593C63.1081 31.8202 61.8137 32.0365 60.5143 31.995C56.6097 31.995 53.1363 30.3399 53.1363 26.1088C53.1363 20.2577 57.6158 18.6841 64.1674 18.2179C64.5357 18.1916 64.9369 18.177 65.3529 18.1617C67.7096 18.0755 70.5392 17.9719 70.5392 15.6536C70.5392 14.115 69.1379 13.7304 67.8204 13.7304ZM64.6464 22.6121C63.1972 22.752 61.8318 23.463 61.8318 25.0831C61.8318 26.6217 63.1972 27.0063 64.6105 27.0063C67.5569 27.0063 68.7427 24.9199 69.2697 21.633C67.8041 22.235 66.2365 22.567 64.6464 22.6121Z" fill="white"/>
</g>
</g>
</svg>
