<svg viewBox="0 0 237 246.07" xmlns="http://www.w3.org/2000/svg" xmlns:xlink="http://www.w3.org/1999/xlink"><clipPath id="a"><circle cx="119" cy="118" r="118"/></clipPath><g clip-path="url(#a)"><circle cx="119" cy="118" fill="#d8eff0" r="118"/><path d="m150.41 89a14.29 14.29 0 0 1 3.82.57v60.71c0 8 5 14.77 11.66 16.81-1.53 7.91-7.89 13.91-15.48 13.91-8.7 0-15.83-7.88-15.83-17.51v-56.95c0-9.63 7.13-17.54 15.83-17.54z" fill="#5a3814"/><path d="m91.23 89a14.2 14.2 0 0 0 -3.8.57v60.71c0 8-5 14.77-11.61 16.81 1.53 7.91 7.87 13.91 15.41 13.91 8.67 0 15.76-7.88 15.76-17.51v-56.95c.01-9.63-7.09-17.54-15.76-17.54z" fill="#492b17"/><path d="m152.72 164.59h-63.86a35.65 35.65 0 0 0 -35.65 35.76c.06 21.56.17 45 .3 45.72h134.56c.14-.71.24-24.16.31-45.72a35.66 35.66 0 0 0 -35.66-35.76z" fill="#5c3981"/><path d="m53.21 200.35c0 6.62 0 13.4.07 19.66l3.48.84 57.46-56.26h-25.36a35.65 35.65 0 0 0 -35.65 35.76z" fill="#472d66"/><path d="m151.09 164.54-7.46-4.49a7.61 7.61 0 0 1 -3.67-6.51v-14.54h-36.75v18l-12.51 7.54 11.54 14.69a24 24 0 0 0 38.12-.41z" fill="#fde0e0"/><path d="m140 139h-36.79v13.69a7.59 7.59 0 0 1 -3.68 6.5l-8.83 5.33 10.3 13.14 39-38.24z" fill="#d9c0cf"/><rect fill="#fde0e0" height="92.79" rx="31.15" width="62.3" x="89.64" y="54.55"/><path d="m120.79 50.93a34.81 34.81 0 0 0 -34.79 34.77v23.55h3.62v-23.55a31.15 31.15 0 1 1 62.3 0v23.55h3.62v-23.55a34.81 34.81 0 0 0 -34.75-34.77z" fill="#6d6c71"/><circle cx="118" cy="118" fill="none" r="118"/><path d="m120.79 136.28c8.84 0 16-6.34 16-14.15h-32c0 7.81 7.21 14.15 16 14.15z" fill="#fff"/><path d="m95.43 116.83v-30.49a31.25 31.25 0 0 1 25.36-30.59v-1.2a31.24 31.24 0 0 0 -31.15 31.15v30.49a31.24 31.24 0 0 0 30.61 31.14 31.29 31.29 0 0 1 -24.82-30.5z" fill="#d9c0cf"/><path d="m120.79 57.55a31.24 31.24 0 0 0 -31.15 31.15v2.47h62.3v-2.47a31.24 31.24 0 0 0 -31.15-31.15z" fill="#d9c0cf"/><path d="m120.79 54.55a31.24 31.24 0 0 0 -31.15 31.15v2.47h44.3l.43-12 2 12h15.53v-2.47a31.24 31.24 0 0 0 -31.11-31.15z" fill="#5a3814"/><path d="m120.79 54.75v-.2a31.24 31.24 0 0 0 -31.15 31.15v2.47h5.79v-1.83c0-15.15 10.97-28.86 25.36-31.59z" fill="#492b17"/><path d="m135.39 140v-4.3c13.11 0 16.61-12.4 16.61-19.7h4.34c0 11.57-6.55 24-20.95 24z" fill="#6d6c71"/><ellipse cx="130.32" cy="138.27" fill="#a7a4aa" rx="8.76" ry="6.16"/><path d="m158.71 119.54h-3.86a2.92 2.92 0 0 1 -2.91-2.9v-23.51a2.92 2.92 0 0 1 2.91-2.91h3.86a5 5 0 0 1 5 5v19.26a5 5 0 0 1 -5 5.06z" fill="#a7a4aa"/><circle cx="118" cy="118" fill="none" r="118"/><rect fill="#d9c0cf" height="19.71" rx="2.66" width="5.87" x="84.83" y="95.02"/><circle cx="119" cy="118" fill="none" r="118"/></g></svg>