<svg width="24" height="24" viewBox="0 0 24 24" fill="none" xmlns="http://www.w3.org/2000/svg">
<g id="tiktok-fill">
<path id="Vector" fill-rule="evenodd" clip-rule="evenodd" d="M3.75 2.25C2.92157 2.25 2.25 2.92157 2.25 3.75V20.25C2.25 21.0784 2.92157 21.75 3.75 21.75H20.25C21.0784 21.75 21.75 21.0784 21.75 20.25V3.75C21.75 2.92157 21.0784 2.25 20.25 2.25H3.75ZM14.7092 5.25C14.709 6.02807 14.9973 6.77972 15.5204 7.365C16.5612 8.5425 18 8.475 18 8.475V10.7925C16.8194 10.7945 15.6681 10.4324 14.7092 9.7575V14.475C14.7092 16.8375 12.7577 18.75 10.3546 18.75C8.11225 18.75 6 16.9725 6 14.475C6 11.91 8.31122 9.9 10.9515 10.245V12.615C9.64286 12.2175 8.37245 13.185 8.37245 14.475C8.37245 15.555 9.27551 16.425 10.3622 16.425C10.8761 16.4249 11.3699 16.2294 11.7396 15.8797C12.1093 15.53 12.3261 15.0533 12.3444 14.55V5.25H14.7092Z" fill="white"/>
</g>
</svg>
