<svg width="24" height="24" viewBox="0 0 24 24" fill="none" xmlns="http://www.w3.org/2000/svg">
<g id="twiter-fill">
<path id="Shape" d="M7.91075 21C16.213 21 20.7546 14.0732 20.7546 8.07668C20.7546 7.88284 20.7546 7.68624 20.7464 7.4924C21.6306 6.84788 22.3937 6.04992 23 5.13592C22.1741 5.50262 21.2988 5.74429 20.4026 5.85311C21.3466 5.28495 22.0536 4.391 22.3923 3.3374C21.5054 3.86647 20.5346 4.23787 19.5226 4.43534C18.8423 3.70572 17.9419 3.22237 16.9611 3.06016C15.9803 2.89795 14.9738 3.06592 14.0973 3.53807C13.2209 4.01022 12.5236 4.7602 12.1134 5.67182C11.7031 6.58344 11.6029 7.60584 11.8281 8.58065C10.0334 8.49004 8.27762 8.02056 6.67468 7.20268C5.07174 6.3848 3.65744 5.23677 2.5235 3.83307C1.94784 4.83421 1.77216 6.01842 2.03214 7.14525C2.29211 8.27208 2.96825 9.25704 3.92325 9.90011C3.20762 9.87564 2.50771 9.68213 1.88 9.33522V9.39753C1.88123 10.4463 2.24205 11.4625 2.90145 12.2743C3.56086 13.0861 4.4784 13.6438 5.499 13.853C5.11161 13.9605 4.71144 14.014 4.30963 14.0122C4.02636 14.0131 3.74365 13.9867 3.46538 13.9333C3.75383 14.836 4.3155 15.6254 5.07171 16.1908C5.82793 16.756 6.74081 17.069 7.6825 17.0859C6.08276 18.3511 4.10667 19.0373 2.0725 19.034C1.71407 19.0354 1.35588 19.0147 1 18.9717C3.06458 20.297 5.46229 21.0007 7.91075 21Z" fill="white"/>
</g>
</svg>
