<svg width="16" height="16" viewBox="0 0 16 16" fill="none" xmlns="http://www.w3.org/2000/svg">
<g id="Youtube - 16px icon">
<path id="Shape" fill-rule="evenodd" clip-rule="evenodd" d="M13.7113 2.33454C14.4157 2.51893 14.9694 3.06026 15.158 3.7491C15.4988 4.99637 15.5 7.9336 15.5 7.9336C15.5 7.9336 15.5 11.0036 15.1578 12.2509C14.9693 12.9398 14.4156 13.4811 13.7111 13.6654C12.4355 14 7.99997 14 7.99997 14C7.99997 14 3.56447 14 2.28884 13.6654C1.58435 13.4811 1.03073 12.9398 0.842144 12.2509C0.5 11.0036 0.5 7.9336 0.5 7.9336C0.5 7.9336 0.500136 4.99637 0.84228 3.7491C1.03086 3.06026 1.58449 2.51893 2.28898 2.33454C3.56461 2 8.00011 2 8.00011 2C8.00011 2 12.4357 2 13.7113 2.33454ZM10.7273 8L5.95455 10.6667V5.33333L10.7273 8Z" fill="black"/>
</g>
</svg>
