<svg width="24" height="24" viewBox="0 0 24 24" fill="none" xmlns="http://www.w3.org/2000/svg">
<g id="youtube-fill">
<path id="Shape" fill-rule="evenodd" clip-rule="evenodd" d="M20.3765 3.50181C21.4098 3.7784 22.2218 4.59039 22.4984 5.62364C22.9982 7.49456 23 11.9004 23 11.9004C23 11.9004 23 16.5055 22.4982 18.3764C22.2216 19.4096 21.4096 20.2216 20.3763 20.4982C18.5055 21 12 21 12 21C12 21 5.49456 21 3.62364 20.4982C2.59039 20.2216 1.7784 19.4096 1.50181 18.3764C1 16.5055 1 11.9004 1 11.9004C1 11.9004 1.0002 7.49456 1.50201 5.62364C1.7786 4.59039 2.59059 3.7784 3.62384 3.50181C5.49476 3 12.0002 3 12.0002 3C12.0002 3 18.5057 3 20.3765 3.50181ZM16 12L9 16V8L16 12Z" fill="white"/>
</g>
</svg>
