<svg width="64" height="64" viewBox="0 0 64 64" fill="none" xmlns="http://www.w3.org/2000/svg">
<g id="youtube-fill" opacity="0.9">
<path id="Shape" fill-rule="evenodd" clip-rule="evenodd" d="M54.3377 9.33816C57.093 10.0757 59.2585 12.241 59.996 14.9964C61.3288 19.9855 61.3337 31.7344 61.3337 31.7344C61.3337 31.7344 61.3337 44.0146 59.9954 49.0037C59.258 51.7591 57.0925 53.9243 54.3371 54.6618C49.3482 56 32.0002 56 32.0002 56C32.0002 56 14.6525 56 9.66335 54.6618C6.90802 53.9243 4.74272 51.7591 4.00515 49.0037C2.66699 44.0146 2.66699 31.7344 2.66699 31.7344C2.66699 31.7344 2.66753 19.9855 4.00569 14.9964C4.74326 12.241 6.90856 10.0757 9.66389 9.33816C14.653 8 32.0007 8 32.0007 8C32.0007 8 49.3487 8 54.3377 9.33816ZM42.667 32L24.0003 42.6667V21.3333L42.667 32Z" fill="white"/>
</g>
</svg>
